<svg width="520" height="760" viewBox="0 0 520 760" fill="none" xmlns="http://www.w3.org/2000/svg">
  <rect width="520" height="760" fill="#FBFAF5"/>
  <ellipse cx="260" cy="708" rx="102" ry="20" fill="#000" opacity=".10"/>
  <path d="M217 78H303V146H217V78Z" fill="#111"/>
  <rect x="203" y="143" width="114" height="58" fill="#ECE8DD" stroke="#111"/>
  <path d="M177 196H343C362.33 196 378 211.67 378 231V650C378 679.271 354.271 703 325 703H195C165.729 703 142 679.271 142 650V231C142 211.67 157.67 196 177 196Z" fill="#F7F6F0" stroke="#111" stroke-width="2"/>
  <rect x="168" y="251" width="184" height="260" fill="#F2EDE4" stroke="#111"/>
  <text x="260" y="337" text-anchor="middle" font-family="Georgia, serif" font-size="43" letter-spacing="-3" fill="#111">ANEX</text>
  <text x="260" y="385" text-anchor="middle" font-family="Georgia, serif" font-size="43" letter-spacing="-3" fill="#111">REGEN</text>
  <text x="260" y="423" text-anchor="middle" font-family="Arial, sans-serif" font-size="14" letter-spacing="5" fill="#111">SÉRUM REPARADOR</text>
  <line x1="205" y1="454" x2="315" y2="454" stroke="#111"/>
  <text x="260" y="488" text-anchor="middle" font-family="Arial, sans-serif" font-size="14" letter-spacing="3" fill="#444">TRANEXÂMICO 3%</text>
  <path d="M174 587C213 562 308 562 346 587V648C346 661.255 335.255 672 322 672H198C184.745 672 174 661.255 174 648V587Z" fill="#BAC8BC" opacity=".45"/>
</svg>
