<svg xmlns="http://www.w3.org/2000/svg" width="740" height="900" viewBox="0 0 740 900" role="img" aria-label="Imagem editorial abstrata de skincare">
  <rect width="740" height="900" fill="#f2f1ec"/>
  <path d="M455 0 C330 118 284 246 330 384 C386 552 287 692 166 900 L740 900 L740 0 Z" fill="#d8d1c3"/>
  <path d="M520 0 C420 120 390 230 436 358 C497 527 424 670 320 900 L740 900 L740 0 Z" fill="#c7bdae" opacity="0.88"/>
  <circle cx="468" cy="240" r="122" fill="#ead8c9" opacity="0.9"/>
  <path d="M419 244 C470 259 506 248 548 218" stroke="#8d7a6d" stroke-width="8" fill="none" stroke-linecap="round" opacity="0.55"/>
  <path d="M420 310 C468 334 520 320 564 280" stroke="#b59f8d" stroke-width="4" fill="none" stroke-linecap="round" opacity="0.65"/>
  <rect x="52" y="650" width="210" height="2" fill="#111" opacity="0.7"/>
  <text x="52" y="704" font-family="Georgia, 'Times New Roman', serif" font-size="86" letter-spacing="-9" fill="#111">BIOVITA</text>
  <text x="58" y="746" font-family="Arial, Helvetica, sans-serif" font-size="16" letter-spacing="10" fill="#111">DERMO</text>
  <text x="54" y="795" font-family="Arial, Helvetica, sans-serif" font-size="15" letter-spacing="3" fill="#555">NOVA ROTINA</text>
</svg>
