<svg width="900" height="620" viewBox="0 0 900 620" fill="none" xmlns="http://www.w3.org/2000/svg">
  <rect width="900" height="620" fill="#EEEAE0"/>
  <path d="M0 385C164 314 274 347 405 276C550 197 703 135 900 192V620H0V385Z" fill="#DAD3C4"/>
  <path d="M568 80C681 137 694 330 587 405C486 476 330 418 313 292C297 169 445 18 568 80Z" fill="#F8F4EA"/>
  <path d="M545 112C628 160 638 306 558 361C485 412 372 369 360 276C348 183 455 60 545 112Z" fill="#C8D1C8" opacity=".6"/>
  <rect x="102" y="84" width="245" height="342" fill="#FBFAF5" stroke="#111"/>
  <text x="224" y="241" text-anchor="middle" font-family="Georgia, serif" font-size="58" letter-spacing="-5" fill="#111">BIOVITA</text>
  <text x="224" y="281" text-anchor="middle" font-family="Arial" font-size="14" letter-spacing="8" fill="#111">DERMO</text>
  <line x1="142" y1="319" x2="306" y2="319" stroke="#111"/>
  <text x="224" y="354" text-anchor="middle" font-family="Arial" font-size="13" letter-spacing="4" fill="#555">SKINCARE</text>
</svg>
