<svg width="1000" height="1200" viewBox="0 0 1000 1200" fill="none" xmlns="http://www.w3.org/2000/svg">
  <rect width="1000" height="1200" fill="#EEEAE0"/>
  <path d="M0 770C170 646 321 681 468 574C654 439 770 423 1000 489V1200H0V770Z" fill="#C9D0C8" opacity=".9"/>
  <path d="M629 162H737V253H629V162Z" fill="#111"/>
  <path d="M604 247H762C780.778 247 796 262.222 796 281V862C796 893.48 770.48 919 739 919H627C595.52 919 570 893.48 570 862V281C570 262.222 585.222 247 604 247Z" fill="#FAF8F1" stroke="#111" stroke-width="2"/>
  <rect x="594" y="334" width="178" height="282" fill="#E4DFD4" stroke="#111"/>
  <text x="683" y="437" text-anchor="middle" font-family="Georgia, serif" font-size="47" letter-spacing="-4" fill="#111">BIOVITA</text>
  <text x="683" y="475" text-anchor="middle" font-family="Arial" font-size="13" letter-spacing="8" fill="#111">DERMO</text>
  <line x1="631" y1="514" x2="735" y2="514" stroke="#111"/>
  <text x="683" y="552" text-anchor="middle" font-family="Arial" font-size="13" letter-spacing="4" fill="#555">ROUTINE</text>
  <path d="M594 725C640 695 731 695 772 725V856C772 876.435 755.435 893 735 893H631C610.565 893 594 876.435 594 856V725Z" fill="#BAC8BC" opacity=".55"/>
  <text x="60" y="231" font-family="Georgia, serif" font-size="142" letter-spacing="-11" fill="#111">Nova</text>
  <text x="60" y="348" font-family="Georgia, serif" font-size="142" letter-spacing="-11" fill="#111">Rotina</text>
</svg>
