<svg width="1000" height="1200" viewBox="0 0 1000 1200" fill="none" xmlns="http://www.w3.org/2000/svg">
  <rect width="1000" height="1200" fill="#171715"/>
  <path d="M0 0H1000V1200H0V0Z" fill="url(#g)"/>
  <path d="M666 62C801 152 875 316 832 479C785 656 626 747 475 704C322 660 225 500 265 338C306 172 523 -33 666 62Z" fill="#E8D9C7" opacity=".92"/>
  <path d="M561 174C647 230 698 341 668 452C637 569 536 625 436 598C335 571 270 464 296 357C323 247 469 114 561 174Z" fill="#F6E8D7" opacity=".75"/>
  <path d="M728 320C808 431 796 628 652 726C535 805 365 796 245 686C104 557 107 320 243 190C397 44 619 168 728 320Z" stroke="#F7F6F2" stroke-opacity=".12" stroke-width="3"/>
  <text x="57" y="1110" font-family="Arial" font-size="16" letter-spacing="8" fill="#F7F6F2">PELE TRATADA COM PRECISÃO</text>
  <defs>
    <linearGradient id="g" x1="179" y1="58" x2="870" y2="1124" gradientUnits="userSpaceOnUse">
      <stop stop-color="#1E1E1C"/>
      <stop offset="1" stop-color="#050505"/>
    </linearGradient>
  </defs>
</svg>
