<svg width="520" height="760" viewBox="0 0 520 760" fill="none" xmlns="http://www.w3.org/2000/svg">
  <rect width="520" height="760" fill="#FBFAF5"/>
  <ellipse cx="260" cy="708" rx="112" ry="20" fill="#000" opacity=".10"/>
  <path d="M203 86H317V164H203V86Z" fill="#111"/>
  <path d="M182 158H338C356.778 158 372 173.222 372 192V655C372 681.51 350.51 703 324 703H196C169.49 703 148 681.51 148 655V192C148 173.222 163.222 158 182 158Z" fill="#F7F6F0" stroke="#111" stroke-width="2"/>
  <rect x="173" y="210" width="174" height="292" fill="#E9EEE9" stroke="#111"/>
  <text x="260" y="300" text-anchor="middle" font-family="Georgia, serif" font-size="47" letter-spacing="-3" fill="#111">SEBOCLIN</text>
  <text x="260" y="336" text-anchor="middle" font-family="Arial, sans-serif" font-size="14" letter-spacing="5" fill="#111">GEL DE LIMPEZA</text>
  <line x1="206" y1="372" x2="314" y2="372" stroke="#111"/>
  <text x="260" y="410" text-anchor="middle" font-family="Arial, sans-serif" font-size="15" letter-spacing="3" fill="#444">SALICÍLICO 2%</text>
  <path d="M176 562C228 532 296 532 344 562V650C344 663.255 333.255 674 320 674H200C186.745 674 176 663.255 176 650V562Z" fill="#BAC8BC" opacity=".75"/>
</svg>
